<?xml version="1.0" encoding="utf-8"?>
<!-- Generator: Adobe Illustrator 27.5.0, SVG Export Plug-In . SVG Version: 6.00 Build 0)  -->
<svg version="1.1" id="Layer_1" xmlns="http://www.w3.org/2000/svg" xmlns:xlink="http://www.w3.org/1999/xlink" x="0px" y="0px"
	 viewBox="0 0 3144.205 2000" style="enable-background:new 0 0 3144.205 2000;" xml:space="preserve">
<rect x="-0.001" y="-0.001" style="fill:#FFFFFF;" width="3144.205" height="2000"/>
<g>
	<path style="fill:#EBF3FA;" d="M387.034,1846.838c-122.208-86.452-232.344-267.636-32.368-645.313
		C554.643,823.85,229.191,777.048,748.278,439.077c525.864-342.383,1218.395-360.9,1742.659,143.247
		c502.723,483.43,445.972,1016.968,300.618,1262.63C1623.129,1844.953,387.034,1846.838,387.034,1846.838z"/>
	<g>
		<g>
			<g>
				<path style="fill:#2B478B;" d="M1875.411,734.069v1080.186c0,16.925-13.863,30.78-30.804,30.78h-540.148
					c-16.941,0-30.788-13.855-30.788-30.78V734.069c0-16.94,13.847-30.796,30.788-30.796h540.148
					C1861.548,703.273,1875.411,717.129,1875.411,734.069z"/>
				<g>
					<path style="opacity:0.4;fill:#5E92DD;" d="M1662.721,746.494h-156.422c-3.347,0-6.086-2.739-6.086-6.086l0,0
						c0-3.347,2.739-6.086,6.086-6.086h156.422c3.347,0,6.086,2.739,6.086,6.086l0,0
						C1668.807,743.755,1666.067,746.494,1662.721,746.494z"/>
					<path style="opacity:0.4;fill:#5E92DD;" d="M1478.518,746.494L1478.518,746.494c-3.348,0-6.086-2.739-6.086-6.086l0,0
						c0-3.347,2.739-6.086,6.086-6.086h0c3.347,0,6.086,2.739,6.086,6.086l0,0C1484.604,743.755,1481.865,746.494,1478.518,746.494z
						"/>
				</g>
				<path style="fill:#2B478B;" d="M1621.244,1781.949c0,10.774-4.351,20.541-11.384,27.635
					c-7.112,7.183-16.979,11.622-27.874,11.622c-21.677,0-39.255-17.578-39.255-39.257c0-13.937,7.262-26.168,18.216-33.131
					c6.075-3.871,13.298-6.115,21.039-6.115C1603.664,1742.703,1621.244,1760.271,1621.244,1781.949z"/>
				<rect x="1309.703" y="773.61" style="fill:#DCEAFF;" width="533.598" height="949.794"/>
				<path style="fill:#233862;" d="M1609.86,1809.584c-7.112,7.183-16.979,11.622-27.874,11.622
					c-21.677,0-39.255-17.578-39.255-39.257c0-13.937,7.262-26.168,18.216-33.131
					C1564.797,1765.529,1576.2,1793.481,1609.86,1809.584z"/>
			</g>
			<rect x="1309.703" y="1050.157" style="fill:#F99746;" width="532.574" height="462.628"/>
			<g>
				<path style="fill:#EBF3FA;" d="M1760.164,1351.597h-367.327c-8.012,0-14.534-6.521-14.534-14.533v-208.882
					c0-8.012,6.522-14.533,14.534-14.533h367.327c8.012,0,14.534,6.521,14.534,14.533v208.882
					C1774.698,1345.075,1768.176,1351.597,1760.164,1351.597z M1392.837,1116.393c-6.5,0-11.791,5.289-11.791,11.789v208.882
					c0,6.5,5.29,11.79,11.791,11.79h367.327c6.502,0,11.791-5.29,11.791-11.79v-208.882c0-6.5-5.289-11.789-11.791-11.789H1392.837z
					"/>
			</g>
			<g>
				<path style="fill:#FFFFFF;" d="M1503.066,1303.6l-84.697,0.66c-3.584,0.027-6.539-2.882-6.567-6.465l-0.006-0.815
					c-0.027-3.583,2.882-6.538,6.465-6.566l84.697-0.658c3.584-0.028,6.539,2.881,6.567,6.465l0.006,0.813
					C1509.558,1300.617,1506.649,1303.572,1503.066,1303.6z"/>
				<path style="fill:#FFFFFF;" d="M1614.679,1302.731l-84.697,0.659c-3.583,0.028-6.539-2.881-6.566-6.465l-0.007-0.813
					c-0.028-3.584,2.882-6.538,6.465-6.566l84.697-0.659c3.583-0.027,6.539,2.881,6.567,6.465l0.006,0.814
					C1621.172,1299.749,1618.262,1302.703,1614.679,1302.731z"/>
				<g>
					<path style="fill:#FFFFFF;" d="M1426.971,1219.436c0.024,3.088-0.495,5.621-1.555,7.603c-1.336,2.5-3.418,3.762-6.246,3.784
						c-2.829,0.022-4.931-1.207-6.304-3.686c-1.091-1.964-1.649-4.489-1.672-7.578c-0.024-3.087,0.483-5.611,1.525-7.572
						c1.335-2.5,3.427-3.762,6.276-3.784c2.848-0.021,4.96,1.207,6.334,3.687C1426.4,1213.832,1426.947,1216.348,1426.971,1219.436z
						 M1423.086,1219.45c-0.015-1.936-0.247-3.561-0.695-4.874c-0.693-1.972-1.806-2.951-3.34-2.938
						c-1.574,0.012-2.682,0.999-3.324,2.96c-0.449,1.321-0.665,2.959-0.649,4.915c0.041,5.27,1.406,7.894,4.095,7.872
						c1.554-0.012,2.652-1.017,3.294-3.019C1422.894,1223.065,1423.101,1221.427,1423.086,1219.45z"/>
					<path style="fill:#FFFFFF;" d="M1444.361,1219.3c0.024,3.088-0.494,5.622-1.554,7.603c-1.337,2.501-3.418,3.762-6.247,3.784
						c-2.829,0.022-4.93-1.207-6.304-3.687c-1.091-1.964-1.648-4.489-1.673-7.577c-0.023-3.088,0.484-5.612,1.525-7.572
						c1.335-2.501,3.427-3.763,6.276-3.784c2.849-0.022,4.96,1.206,6.334,3.686C1443.79,1213.696,1444.338,1216.213,1444.361,1219.3
						z M1440.477,1219.314c-0.015-1.936-0.247-3.561-0.696-4.874c-0.692-1.971-1.805-2.95-3.34-2.938
						c-1.573,0.013-2.681,1-3.323,2.96c-0.448,1.321-0.664,2.96-0.649,4.916c0.041,5.269,1.406,7.893,4.096,7.872
						c1.554-0.013,2.652-1.02,3.294-3.02C1440.285,1222.93,1440.492,1221.291,1440.477,1219.314z"/>
					<path style="fill:#FFFFFF;" d="M1461.752,1219.164c0.024,3.088-0.494,5.622-1.555,7.604c-1.336,2.5-3.417,3.762-6.246,3.783
						c-2.83,0.021-4.931-1.206-6.304-3.686c-1.091-1.964-1.649-4.49-1.673-7.578c-0.024-3.088,0.484-5.611,1.525-7.572
						c1.335-2.501,3.427-3.762,6.276-3.784c2.849-0.022,4.959,1.206,6.334,3.687
						C1461.18,1213.562,1461.728,1216.076,1461.752,1219.164z M1457.868,1219.18c-0.016-1.936-0.248-3.561-0.696-4.875
						c-0.692-1.971-1.805-2.949-3.339-2.938c-1.574,0.012-2.682,0.999-3.324,2.96c-0.448,1.321-0.664,2.959-0.649,4.915
						c0.042,5.27,1.406,7.894,4.096,7.872c1.554-0.012,2.652-1.019,3.293-3.02
						C1457.676,1222.795,1457.882,1221.156,1457.868,1219.18z"/>
					<path style="fill:#FFFFFF;" d="M1479.143,1219.029c0.023,3.088-0.494,5.621-1.555,7.603c-1.336,2.501-3.418,3.762-6.247,3.784
						c-2.829,0.021-4.93-1.207-6.304-3.686c-1.091-1.965-1.648-4.49-1.672-7.578c-0.024-3.088,0.484-5.611,1.524-7.573
						c1.335-2.5,3.428-3.762,6.276-3.783c2.848-0.022,4.959,1.206,6.334,3.686
						C1478.571,1213.426,1479.119,1215.941,1479.143,1219.029z M1475.258,1219.045c-0.015-1.937-0.248-3.562-0.695-4.875
						c-0.693-1.971-1.806-2.95-3.34-2.938c-1.574,0.013-2.682,0.999-3.324,2.96c-0.448,1.321-0.664,2.959-0.649,4.915
						c0.041,5.27,1.406,7.894,4.095,7.872c1.554-0.012,2.651-1.018,3.293-3.019
						C1475.066,1222.659,1475.274,1221.021,1475.258,1219.045z"/>
					<path style="fill:#FFFFFF;" d="M1505.498,1218.824c0.024,3.088-0.494,5.622-1.555,7.603c-1.336,2.501-3.417,3.762-6.246,3.784
						c-2.83,0.021-4.931-1.207-6.305-3.687c-1.091-1.964-1.648-4.489-1.673-7.578c-0.024-3.087,0.484-5.611,1.525-7.571
						c1.335-2.501,3.427-3.763,6.276-3.785c2.848-0.021,4.959,1.207,6.334,3.686
						C1504.926,1213.221,1505.474,1215.736,1505.498,1218.824z M1501.613,1218.839c-0.015-1.935-0.247-3.56-0.696-4.874
						c-0.693-1.971-1.806-2.95-3.339-2.939c-1.574,0.012-2.682,1-3.324,2.96c-0.448,1.321-0.664,2.959-0.649,4.915
						c0.042,5.27,1.406,7.894,4.096,7.872c1.554-0.012,2.651-1.018,3.293-3.02
						C1501.421,1222.454,1501.629,1220.815,1501.613,1218.839z"/>
					<path style="fill:#FFFFFF;" d="M1522.888,1218.688c0.024,3.089-0.494,5.622-1.554,7.603c-1.336,2.501-3.417,3.763-6.246,3.784
						c-2.829,0.022-4.931-1.207-6.304-3.687c-1.091-1.964-1.649-4.489-1.673-7.577c-0.023-3.088,0.484-5.611,1.525-7.573
						c1.335-2.5,3.427-3.762,6.276-3.783c2.849-0.022,4.96,1.206,6.334,3.686
						C1522.316,1213.086,1522.865,1215.601,1522.888,1218.688z M1519.004,1218.704c-0.015-1.937-0.248-3.562-0.696-4.875
						c-0.692-1.971-1.805-2.95-3.339-2.938c-1.574,0.013-2.682,0.999-3.324,2.961c-0.448,1.32-0.665,2.959-0.649,4.914
						c0.042,5.271,1.406,7.895,4.096,7.873c1.554-0.012,2.652-1.019,3.293-3.019
						C1518.812,1222.318,1519.019,1220.68,1519.004,1218.704z"/>
					<path style="fill:#FFFFFF;" d="M1540.278,1218.553c0.024,3.088-0.493,5.623-1.554,7.604c-1.336,2.5-3.417,3.762-6.246,3.783
						c-2.829,0.022-4.93-1.206-6.304-3.686c-1.091-1.964-1.649-4.49-1.673-7.578c-0.024-3.087,0.484-5.611,1.525-7.572
						c1.335-2.501,3.427-3.762,6.276-3.784c2.848-0.023,4.959,1.207,6.333,3.687
						C1539.708,1212.95,1540.255,1215.465,1540.278,1218.553z M1536.395,1218.568c-0.015-1.936-0.247-3.561-0.696-4.874
						c-0.692-1.972-1.805-2.95-3.339-2.938c-1.574,0.012-2.681,0.999-3.324,2.959c-0.449,1.322-0.664,2.96-0.649,4.916
						c0.041,5.27,1.406,7.893,4.095,7.872c1.554-0.012,2.652-1.019,3.293-3.02
						C1536.203,1222.184,1536.41,1220.545,1536.395,1218.568z"/>
					<path style="fill:#FFFFFF;" d="M1557.67,1218.418c0.024,3.088-0.494,5.622-1.555,7.603c-1.335,2.501-3.417,3.762-6.246,3.784
						c-2.828,0.021-4.929-1.207-6.304-3.687c-1.091-1.964-1.648-4.489-1.672-7.577c-0.024-3.088,0.483-5.611,1.524-7.573
						c1.335-2.5,3.427-3.762,6.276-3.783c2.848-0.022,4.96,1.206,6.333,3.686C1557.098,1212.814,1557.646,1215.33,1557.67,1218.418z
						 M1553.785,1218.434c-0.015-1.937-0.248-3.562-0.696-4.875c-0.692-1.971-1.806-2.95-3.34-2.938
						c-1.573,0.013-2.681,1-3.323,2.96c-0.449,1.32-0.664,2.959-0.649,4.916c0.041,5.269,1.406,7.892,4.096,7.872
						c1.554-0.013,2.652-1.018,3.293-3.02C1553.593,1222.048,1553.8,1220.41,1553.785,1218.434z"/>
					<path style="fill:#FFFFFF;" d="M1584.025,1218.213c0.024,3.088-0.493,5.622-1.554,7.603c-1.336,2.501-3.418,3.762-6.247,3.784
						c-2.829,0.021-4.93-1.207-6.304-3.687c-1.091-1.964-1.649-4.489-1.673-7.577c-0.023-3.088,0.484-5.611,1.525-7.572
						c1.336-2.501,3.428-3.763,6.276-3.785c2.849-0.021,4.96,1.207,6.334,3.687C1583.453,1212.609,1584,1215.125,1584.025,1218.213z
						 M1580.141,1218.229c-0.016-1.937-0.248-3.562-0.696-4.875c-0.693-1.971-1.806-2.95-3.34-2.938
						c-1.573,0.013-2.682,0.999-3.324,2.96c-0.449,1.321-0.664,2.959-0.649,4.916c0.042,5.27,1.406,7.893,4.095,7.872
						c1.555-0.013,2.652-1.019,3.293-3.021C1579.948,1221.843,1580.155,1220.204,1580.141,1218.229z"/>
					<path style="fill:#FFFFFF;" d="M1601.415,1218.078c0.024,3.088-0.493,5.621-1.555,7.602c-1.335,2.501-3.417,3.762-6.246,3.784
						c-2.829,0.023-4.931-1.206-6.304-3.686c-1.092-1.964-1.648-4.489-1.674-7.577c-0.024-3.088,0.484-5.611,1.525-7.572
						c1.336-2.501,3.428-3.762,6.277-3.784c2.848-0.022,4.959,1.207,6.333,3.686
						C1600.844,1212.475,1601.391,1214.99,1601.415,1218.078z M1597.531,1218.093c-0.016-1.936-0.248-3.561-0.696-4.875
						c-0.692-1.971-1.807-2.95-3.34-2.938c-1.574,0.012-2.681,0.999-3.324,2.96c-0.448,1.32-0.664,2.959-0.648,4.915
						c0.041,5.27,1.405,7.894,4.096,7.872c1.554-0.013,2.651-1.019,3.293-3.02
						C1597.34,1221.707,1597.546,1220.068,1597.531,1218.093z"/>
					<path style="fill:#FFFFFF;" d="M1618.806,1217.941c0.024,3.089-0.494,5.623-1.555,7.604c-1.335,2.501-3.417,3.762-6.246,3.784
						c-2.829,0.021-4.931-1.207-6.304-3.687c-1.091-1.964-1.648-4.49-1.674-7.578c-0.023-3.087,0.485-5.611,1.526-7.572
						c1.336-2.5,3.428-3.762,6.277-3.783c2.848-0.022,4.959,1.205,6.333,3.686
						C1618.234,1212.339,1618.781,1214.854,1618.806,1217.941z M1614.92,1217.957c-0.014-1.936-0.246-3.561-0.694-4.874
						c-0.693-1.971-1.807-2.95-3.34-2.938c-1.574,0.012-2.681,0.999-3.324,2.959c-0.448,1.322-0.663,2.96-0.649,4.916
						c0.042,5.269,1.406,7.894,4.096,7.873c1.554-0.013,2.651-1.02,3.293-3.021
						C1614.73,1221.572,1614.937,1219.934,1614.92,1217.957z"/>
					<path style="fill:#FFFFFF;" d="M1636.196,1217.807c0.024,3.088-0.494,5.622-1.555,7.604c-1.335,2.5-3.417,3.761-6.245,3.783
						c-2.83,0.021-4.932-1.207-6.305-3.686c-1.091-1.965-1.648-4.49-1.673-7.578c-0.024-3.088,0.483-5.611,1.524-7.573
						c1.336-2.5,3.428-3.762,6.275-3.783c2.85-0.022,4.961,1.206,6.336,3.686
						C1635.625,1212.203,1636.172,1214.719,1636.196,1217.807z M1632.312,1217.822c-0.015-1.935-0.247-3.56-0.694-4.875
						c-0.693-1.971-1.807-2.95-3.34-2.938c-1.575,0.013-2.684,0.999-3.325,2.96c-0.448,1.322-0.663,2.96-0.648,4.916
						c0.041,5.269,1.406,7.893,4.096,7.872c1.554-0.013,2.651-1.019,3.293-3.02
						C1632.121,1221.437,1632.326,1219.799,1632.312,1217.822z"/>
					<path style="fill:#FFFFFF;" d="M1662.551,1217.601c0.025,3.088-0.494,5.622-1.555,7.603c-1.335,2.501-3.418,3.762-6.246,3.784
						c-2.828,0.021-4.93-1.207-6.304-3.687c-1.091-1.964-1.648-4.489-1.673-7.577c-0.024-3.088,0.484-5.611,1.525-7.572
						c1.336-2.501,3.426-3.763,6.276-3.784c2.848-0.022,4.959,1.206,6.333,3.686
						C1661.98,1211.998,1662.527,1214.514,1662.551,1217.601z M1658.666,1217.617c-0.014-1.937-0.247-3.562-0.695-4.875
						c-0.693-1.971-1.807-2.949-3.34-2.938c-1.574,0.013-2.682,1-3.324,2.96c-0.447,1.321-0.663,2.96-0.648,4.916
						c0.041,5.27,1.406,7.892,4.096,7.872c1.555-0.013,2.651-1.019,3.293-3.02
						C1658.476,1221.231,1658.682,1219.593,1658.666,1217.617z"/>
					<path style="fill:#FFFFFF;" d="M1679.941,1217.466c0.025,3.089-0.494,5.622-1.555,7.603c-1.335,2.501-3.418,3.763-6.246,3.784
						c-2.828,0.022-4.93-1.206-6.303-3.687c-1.092-1.963-1.649-4.489-1.674-7.577c-0.023-3.087,0.484-5.611,1.525-7.572
						c1.336-2.501,3.427-3.762,6.275-3.784c2.85-0.021,4.96,1.207,6.334,3.685
						C1679.371,1211.863,1679.918,1214.379,1679.941,1217.466z M1676.057,1217.481c-0.015-1.936-0.247-3.561-0.695-4.874
						c-0.693-1.972-1.806-2.95-3.339-2.938c-1.575,0.012-2.683,0.999-3.325,2.96c-0.447,1.32-0.663,2.959-0.648,4.915
						c0.041,5.27,1.406,7.894,4.096,7.872c1.555-0.012,2.651-1.019,3.293-3.02
						C1675.865,1221.096,1676.072,1219.457,1676.057,1217.481z"/>
					<path style="fill:#FFFFFF;" d="M1697.332,1217.33c0.025,3.089-0.494,5.623-1.555,7.604c-1.335,2.5-3.417,3.762-6.245,3.784
						c-2.829,0.022-4.931-1.207-6.304-3.686c-1.092-1.964-1.65-4.49-1.674-7.578c-0.023-3.087,0.484-5.61,1.525-7.572
						c1.334-2.5,3.427-3.762,6.275-3.784c2.85-0.021,4.96,1.207,6.335,3.687C1696.762,1211.728,1697.309,1214.243,1697.332,1217.33z
						 M1693.447,1217.346c-0.015-1.936-0.246-3.561-0.695-4.874c-0.692-1.971-1.806-2.95-3.339-2.938
						c-1.575,0.013-2.683,0.999-3.325,2.96c-0.447,1.321-0.663,2.959-0.648,4.915c0.041,5.27,1.406,7.894,4.096,7.873
						c1.553-0.013,2.651-1.019,3.293-3.02C1693.256,1220.961,1693.463,1219.322,1693.447,1217.346z"/>
					<path style="fill:#FFFFFF;" d="M1714.724,1217.195c0.024,3.088-0.495,5.622-1.555,7.603c-1.335,2.501-3.418,3.763-6.246,3.784
						c-2.829,0.022-4.931-1.207-6.304-3.686c-1.092-1.965-1.649-4.49-1.674-7.578c-0.024-3.088,0.484-5.611,1.525-7.572
						c1.336-2.501,3.427-3.762,6.275-3.784c2.85-0.022,4.96,1.206,6.335,3.686
						C1714.152,1211.593,1714.699,1214.107,1714.724,1217.195z M1710.838,1217.211c-0.014-1.936-0.246-3.561-0.694-4.875
						c-0.693-1.971-1.807-2.95-3.34-2.938c-1.574,0.012-2.683,0.999-3.323,2.959c-0.449,1.321-0.665,2.959-0.649,4.916
						c0.041,5.269,1.405,7.893,4.095,7.872c1.555-0.013,2.651-1.019,3.294-3.02
						C1710.646,1220.826,1710.854,1219.188,1710.838,1217.211z"/>
				</g>
				<path style="fill:#FFFFFF;" d="M1500.144,1160.782l-82.887,0.645c-3.583,0.028-6.538-2.881-6.566-6.464l0,0
					c-0.028-3.584,2.881-6.539,6.465-6.566l82.886-0.646c3.584-0.028,6.539,2.882,6.567,6.465l0,0
					C1506.636,1157.8,1503.727,1160.754,1500.144,1160.782z"/>
				<g>
					<g>
						<path style="fill:#FFFFFF;" d="M1737.41,1152.438c-0.018-2.365-0.857-4.535-2.247-6.241c-0.403-0.497-1.151-0.528-1.597-0.068
							l-0.385,0.398c-0.369,0.382-0.404,0.983-0.07,1.397c1.002,1.243,1.606,2.818,1.62,4.535c0.013,1.718-0.566,3.302-1.55,4.56
							c-0.326,0.42-0.283,1.02,0.094,1.396l0.391,0.393c0.451,0.452,1.198,0.409,1.594-0.093
							C1736.623,1156.984,1737.429,1154.803,1737.41,1152.438z"/>
					</g>
					<g>
						<path style="fill:#FFFFFF;" d="M1742.781,1152.396c-0.029-3.891-1.509-7.434-3.92-10.124c-0.408-0.455-1.125-0.457-1.55-0.017
							l-0.218,0.225c-0.391,0.403-0.394,1.035-0.021,1.456c2.008,2.261,3.237,5.227,3.262,8.479c0.026,3.251-1.156,6.235-3.13,8.528
							c-0.367,0.425-0.354,1.058,0.043,1.455l0.222,0.223c0.432,0.433,1.148,0.42,1.55-0.042
							C1741.389,1159.851,1742.811,1156.286,1742.781,1152.396z"/>
					</g>
					<g>
						<path style="fill:#FFFFFF;" d="M1747.485,1152.359c-0.04-5.204-2.064-9.936-5.351-13.486
							c-0.414-0.446-1.121-0.447-1.545-0.011l0,0c-0.393,0.406-0.398,1.047-0.015,1.461c2.941,3.171,4.75,7.402,4.786,12.052
							c0.037,4.65-1.708,8.909-4.598,12.125c-0.377,0.421-0.361,1.062,0.037,1.461l0,0c0.43,0.431,1.137,0.419,1.543-0.033
							C1745.576,1162.326,1747.525,1157.563,1747.485,1152.359z"/>
					</g>
					<g>
						<path style="fill:#FFFFFF;" d="M1752.584,1152.319c-0.051-6.628-2.672-12.646-6.906-17.112
							c-0.418-0.441-1.121-0.446-1.545-0.009l-0.377,0.39c-0.394,0.409-0.398,1.055-0.008,1.468
							c3.776,3.997,6.111,9.366,6.156,15.284c0.047,5.918-2.205,11.324-5.918,15.379c-0.385,0.419-0.369,1.064,0.031,1.467
							l0.383,0.385c0.431,0.431,1.134,0.415,1.545-0.033C1750.109,1165.005,1752.637,1158.946,1752.584,1152.319z"/>
					</g>
				</g>
				<g>
					<g>
						<path style="fill:#FFFFFF;" d="M1419.579,1319.207c0.012,1.49-0.239,2.712-0.75,3.667c-0.645,1.206-1.648,1.814-3.013,1.825
							s-2.378-0.582-3.041-1.778c-0.527-0.946-0.795-2.165-0.807-3.654c-0.012-1.489,0.233-2.706,0.735-3.652
							c0.644-1.206,1.653-1.814,3.027-1.825c1.374-0.011,2.392,0.582,3.055,1.777
							C1419.302,1316.505,1419.567,1317.718,1419.579,1319.207z M1417.705,1319.215c-0.007-0.934-0.12-1.717-0.336-2.352
							c-0.334-0.951-0.87-1.424-1.611-1.417c-0.759,0.006-1.293,0.481-1.603,1.429c-0.216,0.636-0.321,1.426-0.313,2.37
							c0.02,2.541,0.678,3.807,1.976,3.796c0.749-0.005,1.278-0.49,1.588-1.455
							C1417.613,1320.957,1417.712,1320.167,1417.705,1319.215z"/>
						<path style="fill:#FFFFFF;" d="M1427.967,1319.143c0.011,1.489-0.239,2.711-0.75,3.666c-0.644,1.206-1.648,1.814-3.012,1.825
							c-1.365,0.011-2.378-0.582-3.041-1.778c-0.526-0.947-0.795-2.164-0.807-3.654c-0.012-1.489,0.233-2.706,0.735-3.652
							c0.644-1.206,1.652-1.815,3.027-1.824c1.373-0.012,2.392,0.581,3.055,1.777
							C1427.691,1316.439,1427.955,1317.652,1427.967,1319.143z M1426.093,1319.149c-0.007-0.934-0.119-1.718-0.335-2.352
							c-0.334-0.95-0.871-1.423-1.611-1.417c-0.759,0.006-1.293,0.481-1.603,1.428c-0.216,0.637-0.321,1.427-0.313,2.371
							c0.02,2.541,0.678,3.807,1.976,3.797c0.75-0.006,1.279-0.491,1.589-1.457C1426,1320.893,1426.101,1320.101,1426.093,1319.149z
							"/>
						<path style="fill:#FFFFFF;" d="M1434.256,1314.362c0.002,0.134-0.049,0.303-0.149,0.503l-4.303,9.075
							c-0.208,0.445-0.485,0.667-0.83,0.671c-0.212,0.001-0.392-0.069-0.542-0.213c-0.15-0.143-0.225-0.318-0.227-0.531
							c-0.001-0.173,0.041-0.347,0.125-0.52l4.325-9.057c0.208-0.434,0.481-0.652,0.816-0.654c0.221-0.002,0.407,0.064,0.557,0.196
							C1434.179,1313.966,1434.254,1314.143,1434.256,1314.362z"/>
						<path style="fill:#FFFFFF;" d="M1442.09,1319.032c0.012,1.489-0.238,2.712-0.75,3.667c-0.645,1.206-1.649,1.814-3.013,1.824
							c-1.364,0.012-2.378-0.582-3.041-1.777c-0.526-0.947-0.795-2.165-0.807-3.655c-0.011-1.489,0.233-2.706,0.735-3.651
							c0.644-1.207,1.653-1.814,3.027-1.826c1.374-0.011,2.392,0.582,3.055,1.778
							C1441.814,1316.33,1442.079,1317.543,1442.09,1319.032z M1440.217,1319.039c-0.007-0.934-0.119-1.717-0.335-2.35
							c-0.334-0.951-0.871-1.424-1.611-1.417c-0.759,0.006-1.294,0.48-1.603,1.428c-0.216,0.636-0.321,1.427-0.313,2.37
							c0.02,2.542,0.678,3.808,1.976,3.798c0.749-0.006,1.278-0.491,1.588-1.457
							C1440.124,1320.782,1440.224,1319.992,1440.217,1319.039z"/>
						<path style="fill:#FFFFFF;" d="M1450.479,1318.967c0.012,1.49-0.239,2.711-0.75,3.666c-0.644,1.207-1.648,1.815-3.013,1.826
							c-1.364,0.01-2.378-0.582-3.041-1.778c-0.526-0.947-0.795-2.165-0.807-3.654c-0.011-1.49,0.233-2.707,0.735-3.653
							c0.644-1.205,1.652-1.814,3.027-1.824c1.373-0.012,2.392,0.582,3.055,1.777
							C1450.202,1316.265,1450.467,1317.478,1450.479,1318.967z M1448.605,1318.975c-0.008-0.934-0.12-1.718-0.336-2.352
							c-0.334-0.951-0.871-1.424-1.611-1.418c-0.759,0.006-1.294,0.482-1.603,1.429c-0.216,0.636-0.321,1.427-0.313,2.37
							c0.02,2.542,0.678,3.808,1.976,3.797c0.75-0.006,1.279-0.49,1.589-1.456
							C1448.512,1320.717,1448.612,1319.927,1448.605,1318.975z"/>
						<path style="fill:#FFFFFF;" d="M1458.866,1318.901c0.012,1.489-0.238,2.712-0.75,3.667c-0.645,1.205-1.648,1.814-3.013,1.825
							c-1.364,0.011-2.378-0.582-3.041-1.778c-0.526-0.947-0.795-2.164-0.807-3.654c-0.011-1.49,0.233-2.707,0.735-3.653
							c0.644-1.206,1.652-1.813,3.027-1.825c1.374-0.01,2.392,0.583,3.054,1.779
							C1458.59,1316.199,1458.854,1317.412,1458.866,1318.901z M1456.993,1318.909c-0.007-0.934-0.12-1.718-0.336-2.352
							c-0.333-0.951-0.87-1.423-1.61-1.417c-0.759,0.006-1.294,0.481-1.603,1.428c-0.216,0.637-0.321,1.427-0.313,2.371
							c0.02,2.541,0.678,3.807,1.975,3.797c0.75-0.006,1.279-0.491,1.589-1.457C1456.9,1320.652,1457,1319.861,1456.993,1318.909z"
							/>
						<path style="fill:#FFFFFF;" d="M1467.254,1318.836c0.012,1.49-0.239,2.712-0.75,3.667c-0.645,1.206-1.648,1.814-3.013,1.825
							c-1.364,0.01-2.378-0.582-3.041-1.778c-0.526-0.947-0.794-2.165-0.806-3.654c-0.012-1.489,0.233-2.706,0.735-3.652
							c0.644-1.206,1.653-1.814,3.027-1.825c1.373-0.011,2.392,0.582,3.055,1.777
							C1466.978,1316.134,1467.242,1317.347,1467.254,1318.836z M1465.38,1318.844c-0.007-0.934-0.12-1.718-0.336-2.352
							c-0.334-0.951-0.871-1.423-1.611-1.418c-0.759,0.007-1.293,0.482-1.603,1.429c-0.216,0.637-0.321,1.427-0.313,2.371
							c0.02,2.542,0.678,3.807,1.975,3.797c0.75-0.006,1.279-0.491,1.589-1.457
							C1465.287,1320.586,1465.387,1319.796,1465.38,1318.844z"/>
					</g>
				</g>
			</g>
		</g>
		<g>
			<g>
				
					<ellipse transform="matrix(0.7071 -0.7071 0.7071 0.7071 -335.7997 938.4236)" style="fill:#E2810E;" cx="964.878" cy="874.558" rx="239.116" ry="239.116"/>
				
					<ellipse transform="matrix(0.7071 -0.7071 0.7071 0.7071 -343.7604 924.5844)" style="fill:#FFB93E;" cx="944.192" cy="877.248" rx="239.116" ry="239.116"/>
				<g>
					<path style="fill:#FFA412;" d="M972.648,1096.09c-57.707,7.504-114.882-7.913-160.992-43.412
						c-46.111-35.499-75.638-86.831-83.142-144.538c-7.503-57.707,7.915-114.881,43.414-160.991
						c35.499-46.111,86.831-75.638,144.537-83.141c57.707-7.504,114.882,7.914,160.992,43.414
						c46.11,35.499,75.637,86.829,83.14,144.535c7.504,57.707-7.914,114.883-43.413,160.994
						C1081.685,1059.062,1030.354,1088.587,972.648,1096.09z M918.141,676.896c-112.02,14.565-191.304,117.55-176.738,229.568
						c14.566,112.02,117.55,191.305,229.569,176.739c112.02-14.565,191.304-117.551,176.738-229.57
						C1133.144,741.614,1030.159,662.33,918.141,676.896z"/>
				</g>
				<g>
					<path style="fill:#F0980A;" d="M982.451,938.884c-0.053-4.729-0.768-8.887-2.142-12.478c-1.375-3.59-3.595-6.832-6.658-9.727
						c-3.065-2.895-7.005-5.553-11.823-7.98c-4.819-2.423-10.695-4.779-17.634-7.068c-11.933-4.034-22.773-8.281-32.523-12.731
						c-9.755-4.455-18.118-9.628-25.096-15.521c-6.98-5.893-12.423-12.814-16.333-20.77c-3.911-7.955-5.927-17.451-6.051-28.492
						c-0.107-9.573,1.492-18.322,4.8-26.247c3.307-7.92,8.081-14.846,14.321-20.776c6.239-5.927,13.734-10.771,22.486-14.531
						c8.75-3.758,18.578-6.209,29.48-7.343l-0.405-36.158l29.104-0.326l0.411,36.665c10.441,1.236,19.931,3.891,28.467,7.961
						c8.533,4.073,15.81,9.399,21.828,15.978c6.013,6.583,10.681,14.388,13.997,23.418c3.313,9.033,5.035,19.183,5.161,30.444
						l-52.566,0.589c-0.151-13.517-3.266-23.593-9.344-30.229c-6.078-6.631-14.15-9.896-24.214-9.783
						c-5.457,0.061-10.149,0.875-14.07,2.441c-3.926,1.561-7.145,3.686-9.663,6.357c-2.516,2.679-4.363,5.825-5.533,9.443
						c-1.172,3.618-1.734,7.512-1.688,11.68c0.047,4.168,0.694,7.934,1.945,11.298c1.249,3.367,3.375,6.468,6.381,9.31
						c3.001,2.838,6.973,5.497,11.913,7.976c4.939,2.481,11.063,5.031,18.37,7.653c11.808,4.261,22.563,8.648,32.255,13.157
						c9.691,4.513,18.028,9.742,25.007,15.689c6.979,5.95,12.424,12.904,16.334,20.857c3.908,7.958,5.924,17.397,6.046,28.323
						c0.112,9.911-1.516,18.833-4.884,26.752c-3.368,7.926-8.174,14.796-14.414,20.609c-6.241,5.817-13.799,10.523-22.672,14.114
						c-8.873,3.591-18.762,5.953-29.664,7.091l0.377,33.622l-28.922,0.324l-0.374-33.455c-10.079-0.898-19.835-2.987-29.268-6.261
						c-9.436-3.274-17.827-8.052-25.175-14.336c-7.346-6.281-13.257-14.242-17.731-23.882c-4.474-9.638-6.788-21.217-6.939-34.732
						l52.568-0.589c0.089,7.998,1.284,14.66,3.589,19.984c2.301,5.324,5.351,9.573,9.147,12.741
						c3.794,3.168,8.093,5.375,12.899,6.615c4.804,1.243,9.69,1.833,14.665,1.776c5.699-0.064,10.691-0.849,14.98-2.362
						c4.288-1.512,7.874-3.58,10.756-6.206c2.881-2.622,5.029-5.718,6.444-9.281C981.813,946.918,982.498,943.056,982.451,938.884z"
						/>
				</g>
			</g>
			<g>
				<path style="fill:#E2810E;" d="M1967.771,905.39c-17.027-130.957,75.33-250.924,206.288-267.952
					c130.957-17.028,250.923,75.331,267.951,206.288s-75.329,250.923-206.287,267.952S1984.799,1036.348,1967.771,905.39z"/>
				
					<ellipse transform="matrix(0.7071 -0.7071 0.7071 0.7071 19.4312 1801.4065)" style="fill:#FFB93E;" cx="2184.206" cy="877.248" rx="239.116" ry="239.115"/>
				<path style="fill:#F0980A;" d="M2219.825,783.613c19.874,0,38.948,6.326,56.694,18.806l11.004,7.739v-58l-3.959-1.903
					c-17.971-8.641-38.683-13.023-61.559-13.023c-41.639,0-75.453,13.474-100.506,40.048c-15.037,15.957-25.571,35.259-31.59,57.641
					h-37.568v43.106h31.673c-0.038,1.671-0.092,3.333-0.092,5.03c0,2.114,0.052,4.197,0.118,6.271h-31.699v43.105h38.794
					c5.885,18.362,15.345,34.38,28.366,47.874c23.677,24.524,54.582,36.959,91.859,36.959c27.117,0,51.515-6.354,72.515-18.883
					l3.406-2.033v-54.99l-11.19,8.437c-18.346,13.828-38.17,20.841-58.925,20.841c-25.207,0-44.413-7.959-58.717-24.332
					c-3.69-4.225-6.895-8.864-9.646-13.874h87.493v-43.105h-99.139c-0.204-3.146-0.323-6.357-0.323-9.656
					c0-0.562,0.052-1.088,0.058-1.646h99.404v-43.106h-91.454c3.862-9.536,9.045-18.069,15.703-25.419
					C2176.321,792.081,2195.712,783.613,2219.825,783.613z"/>
				<g>
					<path style="fill:#FFA412;" d="M2212.661,1096.09c-57.707,7.504-114.882-7.913-160.992-43.412
						c-46.111-35.499-75.638-86.831-83.142-144.538c-7.504-57.707,7.915-114.881,43.414-160.991
						c35.499-46.111,86.83-75.638,144.537-83.141c57.707-7.504,114.881,7.914,160.992,43.414
						c46.11,35.499,75.637,86.829,83.14,144.535c7.504,57.707-7.914,114.883-43.413,160.994
						C2321.698,1059.062,2270.367,1088.587,2212.661,1096.09z M2158.154,676.896c-112.02,14.565-191.303,117.55-176.738,229.568
						c14.566,112.02,117.55,191.305,229.569,176.739c112.019-14.565,191.304-117.551,176.737-229.57
						C2373.158,741.614,2270.173,662.33,2158.154,676.896z"/>
				</g>
			</g>
		</g>
		<path style="fill:#BDD3F2;" d="M2148.885,599.31l-11.256-156.256l-53.432,41.929c-60.66-64.526-133.668-115.415-217.221-151.342
			c-41.973-18.049-86.354-32.086-131.908-41.723c-44.98-9.515-91.396-14.802-137.958-15.716
			c-48.938-0.959-98.274,2.902-146.632,11.479c-48.835,8.661-96.874,22.168-142.783,40.146
			c-46.856,18.348-91.776,41.469-133.512,68.72c-39.947,26.083-77.302,56.175-111.178,89.538l-50.765-40.198l-12.042,156.209
			l175.613-26.685l-50.898-40.303c123.418-121.128,294.236-188.446,470.384-184.983c167.952,3.295,319.063,68.421,426.74,183.634
			l-48.631,38.161L2148.885,599.31z"/>
		<g>
			<g id="man_4_">
				<path style="fill:#FFB27D;" d="M838.102,1190.052c-3.561,9.571-9.731,20.681-16.206,23.443
					c-7.341,3.132-10.404,7.557-10.404,7.557l-5.929-3.441l-7.08-4.115c0,0,0.167-0.786,0.514-2.067
					c0.34-1.274,0.873-3.051,1.59-5.02c0,0,2.172-2.791,0.842-6.299c-1.331-3.504-1.065-8.92,1.207-12.224
					c2.271-3.299,4.462-11.431,5.83-11.189c3.311,0.569-1.628,11.746-0.211,13.819c1.281,1.875,2.884,1.231,3.181,1.09
					c0.018-0.014,0.037-0.019,0.056-0.031c9.29-4.085,20.556-26.104,25.544-23.132
					C838.899,1169.556,839.619,1185.974,838.102,1190.052z"/>
				<g>
					<path style="fill:#2B478B;" d="M805.966,1203.382l11.637,8.178c0.822,0.578,1.967,0.378,2.544-0.444l29.81-42.416
						c0.578-0.821,0.378-1.967-0.444-2.545l-11.636-8.178c-0.822-0.578-1.967-0.378-2.545,0.444l-29.81,42.415
						C804.944,1201.659,805.144,1202.805,805.966,1203.382z"/>
					<path style="fill:#233862;" d="M816.619,1210.869l6.822,4.794c0.625,0.439,1.497,0.288,1.937-0.338l30.312-43.13
						c0.439-0.626,0.288-1.498-0.338-1.938l-6.822-4.794c-0.626-0.44-1.497-0.288-1.937,0.338l-30.311,43.13
						C815.841,1209.558,815.993,1210.429,816.619,1210.869z"/>
				</g>
				<path style="fill:#233862;" d="M639.026,1142.517c0,0,59.212,103.276,80.693,122.279l78.766-58.723
					c0,0,11.43,3.504,16.435,14.979c0,0-47.831,97.449-94.925,101.58c-47.094,4.131-113.191-116.804-113.191-116.804
					L639.026,1142.517z"/>
				<g>
					<path style="fill:#233862;" d="M505.03,1844.953h-34.212c-4.308-2.34-8.144-7.692-9.357-15.676
						c-1.671-11.023-14.024-17.032-16.697-26.049c-2.668-9.012,11.022-21.699,11.022-21.699l2.29-2.951l2.383-3.065l22.707,5.348
						c0,0,0.564,5.408,0.903,12.297c0.248,4.97,0.377,10.713,0.099,15.75c-0.668,12.02,3.361,24.967,14.042,27.307
						C506.107,1837.941,505.754,1842.626,505.03,1844.953z"/>
					<path style="fill:#233862;" d="M703.583,1844.953h-78.24c-3.763-4.592-2.377-21.537-1.808-27.07
						c0.118-1.113,0.198-1.764,0.198-1.764s26.718-21.37,30.387-5.006c0.112,0.514,0.248,1.014,0.396,1.51
						c4.623,15.305,25.362,22.261,37.338,24.198C699.641,1838.084,702.518,1842.131,703.583,1844.953z"/>
					<path style="fill:#F99746;" d="M688.675,1408.226c0,0-4.057,50.616-8.825,111.459c-6.481,82.651-14.274,184.173-15.046,203.405
						c-1.332,33.396-6.681,86.818-6.681,86.818s-12.682,12.69-38.065,7.342c0,0-22.619-76.26-29.08-156.946
						c-0.1-1.323-0.201-2.655-0.301-3.987c-6.01-82.139-15.356-255.103-15.356-255.103L688.675,1408.226z"/>
					<path style="fill:#ED7D2B;" d="M688.675,1408.226c0,0-4.057,50.616-8.825,111.459l-88.871,140.619
						c-0.1-1.323-0.201-2.655-0.301-3.987c-6.01-82.139-15.356-255.103-15.356-255.103L688.675,1408.226z"/>
					<path style="fill:#F99746;" d="M670.148,1414.236c0,0-73.125,183.31-121.206,269.458
						c-48.082,86.146-63.107,110.187-63.107,110.187s-27.547-11.019-30.051-18.531c0,0,18.387-166.311,50.585-206.852
						c18.195-22.908,39.568-91.656,40.569-115.696c1.001-24.041,6.511-71.622,6.511-71.622L670.148,1414.236z"/>
				</g>
				<path style="fill:#FFB27D;" d="M651.945,1147.006c-28.574,9.018-78.017-15.317-78.017-15.317s26.346-19.773,24.966-60.886
					l22.094,17.805l15.008,12.094c0,0-0.062,7.129-1.702,19.625c-0.433,3.286-0.971,6.95-1.652,10.954
					C644.908,1138.014,651.945,1147.006,651.945,1147.006z"/>
				<path style="fill:#ED975D;" d="M635.996,1100.701c0,0-0.062,7.129-1.702,19.625c-16.63-2.853-35.493-29.731-35.493-29.731
					c8.466-2.445,15.88-2.885,22.187-1.987L635.996,1100.701z"/>
				<path style="fill:#FFB27D;" d="M644.735,1100.023c0,0-47.199,7.842-51.63-21.627c-4.431-29.468-13.506-48.303,16.441-54.555
					c29.948-6.252,37.508,4.109,41.379,13.586C654.796,1046.904,656.898,1097.225,644.735,1100.023z"/>
				<path style="fill:#2B478B;" d="M691.828,1412.441c-0.86,0.715-1.858,1.145-3.003,1.145c-10.73-0.146-42.021,5.814-68.498,3.096
					c-22.321-2.144-42.077-8.756-63.292-18.266c-2.817-1.263-9.302-4.724-9.156-7.873c0.094-3.448,0.437-8.448,0.867-14.747
					c1.502-21.898,4.119-59.564,1.567-103.019c-0.459-8.092-0.7-16.117-0.729-24.02c-0.219-58.894,11.46-110.694,34.925-128.227
					c2.005-1.437,14.31,4.578,25.616,10.154c10.446,5.154,20.893,5.723,30.763,3.726l9.871,8.726
					c12.021,11.16,25.186,26.331,30.908,49.366c4.87,19.602,7.728,54.95,9.302,91.581c0.714,16.599,1.291,33.343,1.436,49.228v0.568
					c0.139,1.575,0.139,3.296,0.139,4.87C693.118,1379.528,692.542,1411.866,691.828,1412.441z"/>
				<path style="fill:#233862;" d="M548.745,1375.796c1.502-21.898,4.119-59.564,1.567-103.019c-0.459-8.092-0.7-16.117-0.729-24.02
					c9.775-23.713,17.765-40.91,17.765-40.91h24.64C591.988,1207.848,610.052,1331.234,548.745,1375.796z"/>
				<g>
					<path style="fill:#233862;" d="M422.532,1515.634l105.085,14.975c13.677,1.948,26.461-7.646,28.41-21.323l6.489-45.54
						c1.949-13.677-7.646-26.461-21.323-28.409l-105.084-14.975c-13.677-1.949-26.461,7.646-28.41,21.322l-6.489,45.54
						C399.26,1500.901,408.855,1513.686,422.532,1515.634z"/>
					<path style="fill:#2B478B;" d="M547.128,1448.913v-0.007c-2.952-7.389-9.327-13.226-17.41-15.205h-0.006
						c-0.006,0-0.012,0-0.018-0.006c-0.793-0.193-1.597-0.354-2.426-0.471l-20.925-2.978l1.399-9.827
						c0.316-2.191-0.248-4.382-1.585-6.164c-1.337-1.776-3.286-2.935-5.477-3.243l-5.458-0.78l-21.971-3.132l-3.961-0.563
						c-4.536-0.643-8.763,2.52-9.407,7.063l-1.399,9.828l-36.118-5.15c-13.727-1.955-26.557,7.675-28.519,21.401l-6.56,46.071
						c-1.956,13.726,7.674,26.556,21.401,28.512l104.896,14.953c1.851,0.266,3.683,0.314,5.471,0.173h0.006c0,0,0.006,0,0.012,0
						c2.872-0.217,5.632-0.935,8.188-2.067c7.711-3.403,13.566-10.596,14.841-19.514l6.566-46.064
						C549.306,1457.25,548.706,1452.861,547.128,1448.913z M465.044,1414.336c0.198-1.374,1.275-2.414,2.581-2.624
						c0.303-0.05,0.613-0.056,0.935-0.013l4.666,0.662l17.292,2.47l9.426,1.343c1.696,0.241,2.878,1.82,2.637,3.51l-1.399,9.827
						l-37.535-5.354L465.044,1414.336z"/>
				</g>
				<path style="fill:#FFB27D;" d="M502.442,1380.036c0,0-5.519,7.351-5.738,10.288c-1.483,19.908,7.613,22.662-15.939,33.721
					c0,0-10.055,3.835-10.226-3.97c-0.171-7.805,6.978-7.934,5.67-18.861c-1.508-12.606-1.356-12.724,6.917-19.306l5.479-9.055
					L502.442,1380.036z"/>
				<path style="fill:#2B478B;" d="M488.408,1385.67c8.873,1.73,18.491,1.029,18.491,1.029s26.34-81.371,29.731-88.805
					c3.391-7.433,78.241-95.411,78.241-95.411l-31.182-78.035c0,0-80.959,135.233-89.179,154.235
					c-13.585,31.398-18.299,101.801-18.299,101.801S481.439,1384.313,488.408,1385.67z"/>
				<path style="fill:#2B478B;" d="M593.066,1075.561c0,0,4.843-0.81,4.062-7.48c-0.781-6.672-0.771-15.393,4.653-13.767
					c5.425,1.625,5.694,5.968,7.923,3.432s2.269-13.221,18.408-13.965c16.14-0.743,22.698,4.874,30.204,1.574
					c7.506-3.3,7.902-14.659,7.902-14.659s-2.135,4.056-5.359,5.346c0,0,12.521-17.126-1.975-28.869
					c-14.497-11.744-29.279-4.056-37.669-3.548c-18.484,1.119-30.424,2.227-36.462,14.374
					C578.714,1030.145,581.205,1063.869,593.066,1075.561z"/>
				<path style="fill:#FFB27D;" d="M493.737,1388.791c0,0,5.314,5.539,5.65,7.844c1.076,7.399,3.547,10.594,2.309,11.399
					c-2.573,1.673-5.98-3.805-7.607-8.719C492.461,1394.399,493.737,1388.791,493.737,1388.791z"/>
			</g>
		</g>
		<g>
			<path style="fill:#ED975D;" d="M2439.248,1383.184c0,0-20.705,11.772-26.502,11.771c-5.796-0.002-28.55-4.398-34.892-1.158
				c-6.343,3.241-17.823,16.28-19.978,20.54c-3.873,7.659,15.594,4.276,24.795-2.248c1.335-0.946,2.997-1.298,4.596-0.949
				c4.765,1.04,14.668,2.839,19.447,1.069c6.428-2.379,40.289-5.021,40.289-5.021L2439.248,1383.184z"/>
			<path style="fill:#ED7D2B;" d="M2596.785,1222.823c0,0-21.465,152.559-57.008,166.223
				c-17.537,6.742-95.045,22.026-117.973,23.561c0,0-5.616-4.556-4.248-23.102c0,0,81.205-29.813,92.742-46.026
				c17.168-24.129-10.66-98.575,10.885-121.237C2542.727,1199.579,2579.013,1189.839,2596.785,1222.823z"/>
			<path style="fill:#163560;" d="M2415.84,1808.432c0,0-2.229,35.957-9.186,36.473c-0.926,0.068-35.284,0.068-35.284,0.068
				l-43.86-0.254c0,0,0.287-10.568,13.107-12.802c12.82-2.234,34.279-11.244,42.046-28.191
				C2390.834,1785.9,2415.84,1808.432,2415.84,1808.432z"/>
			<path style="fill:#599DAD;" d="M2589.551,1544.234c-6.261,10.621-13.503,20.574-20.968,30
				c-23.069,29.123-48.183,53.137-52.558,75.836c-0.869,4.523-2.25,9.396-4.055,14.528c-1.828,5.199-4.086,10.666-6.692,16.318
				c-9.79,21.265-24.43,45.093-39.047,66.752c-25.269,37.442-49.029,68.685-49.029,68.685c-16.874,1.971-38.98,1.688-43.575-1.857
				c1.744-4.367,20.75-56.065,46.174-119.245c10.324-25.647,21.303-52.929,31.895-79.237c1.411-3.514,2.822-7.013,4.219-10.48
				c3.238-8.052,6.426-15.978,9.537-23.694c23.873-59.324,42.887-106.563,42.887-106.563s95.415-36.145,105.323-12.725
				C2621.831,1481.864,2615.178,1500.783,2589.551,1544.234z"/>
			<path style="fill:#163560;" d="M2463.369,1709.226c0,0,30.309,19.476,27.368,25.801c-0.392,0.842-17.142,30.841-17.142,30.841
				l-21.604,38.172c0,0-9.087-5.403-4.788-17.687c4.3-12.282,6.894-35.411-4.116-50.453
				C2431.507,1720.076,2463.369,1709.226,2463.369,1709.226z"/>
			<path style="fill:#6BB7BF;" d="M2442.104,1744.184c0,0,17.744,1.017,32.558-29.163c0,0-28.519-97.561-45.449-118.521
				c-0.776-0.96-0.579-2.019,0.447-3.176c12.782-14.412,154.796-43.711,173.356-72.589c6.398-9.947,10.021-19.396,11.993-27.648
				c4.209-17.62,0.882-29.791,0.882-29.791l-141.831-4.104c0,0-117.759,73.618-131.461,123.664
				C2334.442,1612.645,2442.104,1744.184,2442.104,1744.184z"/>
			<path style="fill:#5AA9AD;" d="M2429.659,1593.323c12.782-14.412,154.796-43.711,173.356-72.589
				c6.398-9.947,10.021-19.396,11.993-27.648v-17.949l-60.28-9.482c0,0-17.095,52.601-67.723,72.326
				C2439.586,1556.457,2430.606,1589.24,2429.659,1593.323z"/>
			<path style="fill:#FFB27D;" d="M2512.869,1213.209c28.693,7.416,76.258-19.167,76.258-19.167s-18.47-12.413-25.314-39.68
				c-0.348-1.375-0.657-2.781-0.939-4.229c-3.006-0.637-8.673-1.841-14.735-3.123l-21.915,19.634c0,0,0.5,8.152,3.242,22.163
				c0.474,2.447,1.02,5.07,1.65,7.864C2519.353,1203.957,2512.869,1213.209,2512.869,1213.209z"/>
			<path style="fill:#F99746;" d="M2619.506,1332.139c-4.109,55.275,1.297,139.342-3.365,153.9
				c-4.024,12.562-49.869,5.094-68.169,0.901c-6.772-1.552-14.977-3.77-23.45-6.391c-23.635-7.318-49.388-17.768-52.15-25.526
				c-0.106-0.305-0.199-0.603-0.255-0.893c-0.255-1.126-0.198-2.183,0.05-3.252c0.92-3.953,4.471-8.231,4.888-18.023
				c0.468-10.932,0.396-23.806,0.809-37.648c0.021-1.559,0.042-3.259,0.212-4.811l0.008-0.567c0.006-0.298,0.013-0.587,0.021-0.885
				c0.397-15.438,1.204-31.669,2.14-47.766c0.596-10.109,1.282-20.12,2.075-29.713c2.063-24.761,4.839-46.78,8.517-60.702
				c6.007-22.691,19.256-37.492,31.314-48.339l8.721-7.481c9.734,2.126,21.24,0.716,31.647-4.215
				c11.265-5.35,15.154-9.182,17.116-7.736C2605.648,1203.063,2624.359,1264.564,2619.506,1332.139z"/>
			<path style="fill:#ED7D2B;" d="M2524.521,1480.549c-23.635-7.318-49.388-17.768-52.15-25.526
				c-0.106-0.305-0.199-0.603-0.255-0.893c0.015-1.084,0.027-2.168,0.05-3.252c0.92-3.953,4.471-8.231,4.888-18.023
				c0.468-10.932,0.396-23.806,0.809-37.648c0.021-1.559,0.042-3.259,0.212-4.811l0.008-0.567c0.006-0.298,0.013-0.587,0.021-0.885
				l95.548-121.729C2573.65,1267.215,2637.877,1400.959,2524.521,1480.549z"/>
			<path style="fill:#ED975D;" d="M2526.223,1166.645c0,0,0.5,8.152,3.242,22.163c21.401-6.916,31.106-26.247,34.348-34.445
				c-0.348-1.375-0.657-2.781-0.939-4.229c-3.006-0.637-8.673-1.841-14.735-3.123L2526.223,1166.645z"/>
			<path style="fill:#FFB27D;" d="M2523.344,1179c0,0,46.671-7.788,41.372-36.778c-5.298-28.988-2.842-49.518-32.863-45.771
				c-30.021,3.748-33.773,15.863-34.358,25.97C2496.909,1132.528,2511.068,1180.279,2523.344,1179z"/>
			<path style="fill:#4A75CB;" d="M2454.253,1418.725l-116.507,2.487l-32.455-99.884c-0.369-1.137-1.59-1.759-2.727-1.39l0,0
				c-1.136,0.369-1.758,1.59-1.389,2.727l33.73,103.81c0.366,1.128,1.429,1.883,2.613,1.857l116.886-2.496L2454.253,1418.725z"/>
			<path style="fill:#FFB27D;" d="M2452.024,1431.513c0,0-38.198,10.07-52.522,9.015c-14.324-1.057-26.238-7.87-28.041-11.427
				c-1.802-3.557-5.589-9.864,4.163-8.7s23.067,3.237,23.48,1.363c0.413-1.874-7.95-1.694-7.95-1.694s-2.528-3.677,0.655-3.81
				c3.183-0.133,12.467-2.652,15.916-0.928c3.448,1.724,6.63,8.09,9.151,7.824c2.52-0.265,31.964-13.263,31.964-13.263
				L2452.024,1431.513z"/>
			<path style="fill:#F99746;" d="M2587.313,1229.084c0,0-4.515,153.994-38.334,171.494c-16.688,8.635-92.039,32.37-114.656,36.423
				c0,0-6.084-3.909-6.77-22.493c0,0,77.424-38.583,87.102-55.969c14.404-25.875-21.461-96.8-2.547-121.699
				S2566.012,1198.26,2587.313,1229.084z"/>
			<path style="fill:#2B478B;" d="M2563.813,1154.362c0,0,0.535-9.946-5.602-15.645c0,0,2.137-9.972-1.809-11.616
				c-3.945-1.644-4.767,6.739-6.574,5.425c-1.809-1.315-9.863-7.561-13.314-16.767c-3.452-9.205-35.045,1.943-38.728,3.602
				c-3.682,1.658-15.517-4.424-17.818-9.354c0,0,6.575-5.261,9.534-9.206c2.958-3.944,23.67-30.573,52.6-23.012
				c28.931,7.561,32.876,21.369,31.231,33.204C2571.689,1122.828,2575.661,1150.391,2563.813,1154.362z"/>
		</g>
		<g>
			<path style="fill:#F99746;" d="M2716.373,1591.141h-219.658c-4.411,0-8.021-3.609-8.021-8.021v-45.609
				c0-4.41,3.609-8.02,8.021-8.02h219.658c4.412,0,8.021,3.61,8.021,8.02v45.609
				C2724.395,1587.531,2720.785,1591.141,2716.373,1591.141z"/>
			<g>
				<g>
					<g>
						<path style="fill:#EFCBAB;" d="M2532.728,1591.14l-3.453,16.311l-50.002,236.132c-0.14,0.823-1.269,1.448-2.614,1.448
							c-2.566,0-4.565-1.371-4.294-2.948l39.656-241.809l1.501-9.135H2532.728z"/>
					</g>
					<path style="fill:#CCA07F;" d="M2532.728,1591.14l-3.453,16.311c-2.373-6.497-17.254-7.177-17.254-7.177l1.501-9.135H2532.728z
						"/>
				</g>
				<g>
					<g>
						<path style="fill:#EFCBAB;" d="M2738.635,1845.031c-1.346,0-2.475-0.625-2.613-1.448l-50.002-236.132l-2.155-10.176
							l-1.299-6.136h19.206l1.5,9.135l1.176,7.167l38.481,234.642C2743.201,1843.66,2741.201,1845.031,2738.635,1845.031z"/>
					</g>
					<path style="fill:#CCA07F;" d="M2704.447,1607.441c-4.886-7.772-20.575-10.159-20.575-10.159l-0.008-0.007l-1.299-6.136h19.206
						l1.5,9.135L2704.447,1607.441z"/>
				</g>
			</g>
		</g>
		<path style="fill:#2E3552;" d="M2895.105,1850.059H248.968c-1.582,0-2.877-1.294-2.877-2.876v-0.691
			c0-1.582,1.294-2.876,2.876-2.876h2646.14c1.581,0,2.875,1.294,2.875,2.876v0.691
			C2897.982,1848.766,2896.688,1850.059,2895.105,1850.059z"/>
		<g>
			<g>
				<path style="fill:#2C92E0;" d="M1477.693,830.206h5.203v57.069c-4.958,0-9.916,0-14.88,0V861.91l-12.113,12.683h-1.622
					l-12.034-12.683v25.365c-4.958,0-9.916,0-14.874,0v-57.069h5.361l22.274,24.714L1477.693,830.206z"/>
				<path style="fill:#2C92E0;" d="M1493.911,858.905c0-39.349,58.37-39.349,58.37,0
					C1552.28,898.33,1493.911,898.33,1493.911,858.905z M1537.4,858.905c0-20.487-28.529-20.487-28.529,0
					C1508.871,879.554,1537.4,879.554,1537.4,858.905z"/>
				<path style="fill:#2C92E0;" d="M1578.328,859.309v27.966c-5.037,0-10.082,0-15.04,0v-57.148h5.282l28.781,28.125v-27.884
					c4.958,0,9.916,0,14.874,0v56.99h-5.203L1578.328,859.309z"/>
				<path style="fill:#2C92E0;" d="M1662.255,843.376c-8.453,0-12.683,0-21.056,0v8.049h19.348c0,4.31,0,8.618,0,12.924h-19.348
					c0,3.333,0,6.587,0,10.002c8.373,0,13.252,0,21.783,0c0,4.227,0,8.615,0,12.924c-13.331,0-23.081,0-36.254,0
					c0-19.024,0-38.044,0-56.907c13.173,0,22.195,0,35.526,0C1662.255,834.598,1662.255,838.987,1662.255,843.376z"/>
				<path style="fill:#2C92E0;" d="M1702.521,887.275h-14.384v-23.899l-19.104-30.813v-2.194h15.688l10.326,18.941h0.563
					l10.326-18.941h15.774v2.194l-19.189,30.813V887.275z"/>
			</g>
			<g>
				<path style="fill:#2C92E0;" d="M1360.398,930.483c0-4.389,0-8.698,0-13.007h42.272c0,4.31,0,8.618,0,13.007h-13.901v43.899
					c-4.799,0-9.591,0-14.391,0v-43.899H1360.398z"/>
				<path style="fill:#2C92E0;" d="M1459.755,972.268v2.115h-16.257l-9.757-16.747h-7.559v16.747c-4.878,0-9.836,0-14.549,0
					c0-18.941,0-37.882,0-56.907c8.208,0,16.661,0,24.955,0c22.354,0.083,26.418,26.99,12.034,36.744L1459.755,972.268z
					 M1436.587,930.483c-3.416-0.08-6.99,0-10.406,0c0,4.633,0,9.512,0,14.066h10.406
					C1444.47,944.549,1444.881,930.565,1436.587,930.483z"/>
				<path style="fill:#2C92E0;" d="M1503.933,967.227h-22.44l-3.33,7.156h-14.231v-2.115l25.61-55.523h6.262l25.683,55.523v2.115
					h-14.225L1503.933,967.227z M1492.633,939.75l-6.341,14.96h12.841L1492.633,939.75z"/>
				<path style="fill:#2C92E0;" d="M1544.04,946.416v27.967c-5.038,0-10.081,0-15.04,0v-57.148h5.282l28.781,28.126v-27.885
					c4.958,0,9.916,0,14.874,0v56.989h-5.203L1544.04,946.416z"/>
				<path style="fill:#2C92E0;" d="M1620.334,957.391c0-3.981-4.72-4.634-10.405-4.958c-12.358-0.894-20.487-5.12-20.652-17.479
					c-0.49-24.551,43.733-24.551,43.409,0c-5.116,0-8.856,0-13.82,0c0-7.56-15.277-6.91-15.768-0.162
					c-0.324,4.309,3.898,5.203,9.021,5.772c11.3,1.218,22.354,2.684,22.354,16.909c0,23.899-46.335,24.551-46.011-0.486
					c4.878,0,9.108,0,14.066,0C1602.528,964.222,1620.334,964.06,1620.334,957.391z"/>
				<path style="fill:#2C92E0;" d="M1659.951,955.928v18.455c-4.879,0-9.836,0-14.795,0v-56.907c11.625,0,23.816,0,35.447,0
					c0,4.796,0,8.129,0,13.007h-20.652v12.438h18.289c0,4.879,0,7.967,0,13.007H1659.951z"/>
				<path style="fill:#2C92E0;" d="M1727.369,930.483c-8.453,0-12.682,0-21.056,0v8.049h19.349c0,4.309,0,8.618,0,12.924h-19.349
					c0,3.333,0,6.586,0,10.002c8.374,0,13.252,0,21.784,0c0,4.227,0,8.615,0,12.924c-13.332,0-23.082,0-36.254,0
					c0-19.024,0-38.044,0-56.907c13.172,0,22.194,0,35.525,0C1727.369,921.706,1727.369,926.094,1727.369,930.483z"/>
				<path style="fill:#2C92E0;" d="M1788.685,972.268v2.115h-16.257l-9.758-16.747h-7.559v16.747c-4.879,0-9.836,0-14.549,0
					c0-18.941,0-37.882,0-56.907c8.207,0,16.66,0,24.955,0c22.354,0.083,26.418,26.99,12.033,36.744L1788.685,972.268z
					 M1765.518,930.483c-3.416-0.08-6.99,0-10.406,0c0,4.633,0,9.512,0,14.066h10.406
					C1773.4,944.549,1773.811,930.565,1765.518,930.483z"/>
			</g>
		</g>
		<path style="fill:#EBF3FA;" d="M1664.292,1471.964h-176.605c-5.086,0-9.209-4.123-9.209-9.21v-51.05
			c0-5.086,4.123-9.209,9.209-9.209h176.605c5.087,0,9.21,4.123,9.21,9.209v51.05
			C1673.502,1467.841,1669.379,1471.964,1664.292,1471.964z"/>
	</g>
</g>
</svg>
